<svg xmlns="http://www.w3.org/2000/svg" width="955.00" height="1040.00" viewBox="0 0 955.00 1040.00">
<rect width="100%" height="100%" fill="#ffffff" />
<title>cts_design.svg</title>
<g fill="none" stroke-linecap="round">
<line x1="481.56" y1="528.73" x2="280.42" y2="589.97" stroke="#2ca25f" stroke-width="1.80" stroke-opacity="0.78" />
<line x1="481.56" y1="528.73" x2="707.83" y2="459.81" stroke="#2ca25f" stroke-width="1.80" stroke-opacity="0.78" />
<line x1="280.42" y1="589.97" x2="280.42" y2="668.17" stroke="#2ca25f" stroke-width="1.80" stroke-opacity="0.78" />
<line x1="280.42" y1="668.17" x2="215.77" y2="668.17" stroke="#2ca25f" stroke-width="1.80" stroke-opacity="0.78" />
<line x1="215.77" y1="668.17" x2="178.73" y2="668.17" stroke="#2ca25f" stroke-width="1.80" stroke-opacity="0.78" />
<line x1="178.73" y1="668.17" x2="178.73" y2="816.32" stroke="#2ca25f" stroke-width="1.80" stroke-opacity="0.78" />
<line x1="178.73" y1="816.32" x2="178.73" y2="853.31" stroke="#2ca25f" stroke-width="1.80" stroke-opacity="0.78" />
<line x1="178.73" y1="816.32" x2="88.78" y2="816.32" stroke="#2ca25f" stroke-width="1.80" stroke-opacity="0.78" />
<line x1="178.73" y1="668.17" x2="168.15" y2="668.17" stroke="#2ca25f" stroke-width="1.80" stroke-opacity="0.78" />
<line x1="168.15" y1="668.17" x2="99.37" y2="668.17" stroke="#2ca25f" stroke-width="1.80" stroke-opacity="0.78" />
<line x1="168.15" y1="668.17" x2="168.15" y2="594.10" stroke="#2ca25f" stroke-width="1.80" stroke-opacity="0.78" />
<line x1="280.42" y1="668.17" x2="332.17" y2="668.17" stroke="#2ca25f" stroke-width="1.80" stroke-opacity="0.78" />
<line x1="332.17" y1="668.17" x2="348.04" y2="705.16" stroke="#2ca25f" stroke-width="1.80" stroke-opacity="0.78" />
<line x1="348.04" y1="705.16" x2="411.53" y2="705.16" stroke="#2ca25f" stroke-width="1.80" stroke-opacity="0.78" />
<line x1="411.53" y1="705.16" x2="411.53" y2="853.31" stroke="#2ca25f" stroke-width="1.80" stroke-opacity="0.78" />
<line x1="411.53" y1="853.31" x2="411.53" y2="890.40" stroke="#2ca25f" stroke-width="1.80" stroke-opacity="0.78" />
<line x1="411.53" y1="890.40" x2="342.75" y2="890.40" stroke="#2ca25f" stroke-width="1.80" stroke-opacity="0.78" />
<line x1="411.53" y1="890.40" x2="527.94" y2="890.40" stroke="#2ca25f" stroke-width="1.80" stroke-opacity="0.78" />
<line x1="411.53" y1="705.16" x2="475.03" y2="705.16" stroke="#2ca25f" stroke-width="1.80" stroke-opacity="0.78" />
<line x1="475.03" y1="705.16" x2="475.03" y2="482.94" stroke="#2ca25f" stroke-width="1.80" stroke-opacity="0.78" />
<line x1="475.03" y1="482.94" x2="411.53" y2="408.86" stroke="#2ca25f" stroke-width="1.80" stroke-opacity="0.78" />
<line x1="411.53" y1="408.86" x2="411.53" y2="334.79" stroke="#2ca25f" stroke-width="1.80" stroke-opacity="0.78" />
<line x1="411.53" y1="334.79" x2="411.53" y2="223.73" stroke="#2ca25f" stroke-width="1.80" stroke-opacity="0.78" />
<line x1="411.53" y1="334.79" x2="258.10" y2="334.79" stroke="#2ca25f" stroke-width="1.80" stroke-opacity="0.78" />
<line x1="258.10" y1="334.79" x2="136.40" y2="334.79" stroke="#2ca25f" stroke-width="1.80" stroke-opacity="0.78" />
<line x1="136.40" y1="334.79" x2="136.40" y2="371.88" stroke="#2ca25f" stroke-width="1.80" stroke-opacity="0.78" />
<line x1="136.40" y1="334.79" x2="88.78" y2="297.80" stroke="#2ca25f" stroke-width="1.80" stroke-opacity="0.78" />
<line x1="88.78" y1="297.80" x2="78.20" y2="297.80" stroke="#2ca25f" stroke-width="1.80" stroke-opacity="0.78" />
<line x1="88.78" y1="297.80" x2="88.78" y2="186.64" stroke="#2ca25f" stroke-width="1.80" stroke-opacity="0.78" />
<line x1="707.83" y1="459.81" x2="877.14" y2="459.81" stroke="#2ca25f" stroke-width="1.80" stroke-opacity="0.78" />
<line x1="877.14" y1="459.81" x2="924.76" y2="459.81" stroke="#2ca25f" stroke-width="1.80" stroke-opacity="0.78" />
<line x1="924.76" y1="459.81" x2="935.34" y2="482.94" stroke="#2ca25f" stroke-width="1.80" stroke-opacity="0.78" />
<line x1="924.76" y1="459.81" x2="924.76" y2="408.86" stroke="#2ca25f" stroke-width="1.80" stroke-opacity="0.78" />
<line x1="924.76" y1="408.86" x2="935.34" y2="408.86" stroke="#2ca25f" stroke-width="1.80" stroke-opacity="0.78" />
<line x1="924.76" y1="408.86" x2="924.76" y2="334.79" stroke="#2ca25f" stroke-width="1.80" stroke-opacity="0.78" />
<line x1="877.14" y1="459.81" x2="877.14" y2="557.01" stroke="#2ca25f" stroke-width="1.80" stroke-opacity="0.78" />
<line x1="877.14" y1="557.01" x2="840.11" y2="705.16" stroke="#2ca25f" stroke-width="1.80" stroke-opacity="0.78" />
<line x1="840.11" y1="705.16" x2="834.81" y2="779.23" stroke="#2ca25f" stroke-width="1.80" stroke-opacity="0.78" />
<line x1="834.81" y1="779.23" x2="792.49" y2="816.32" stroke="#2ca25f" stroke-width="1.80" stroke-opacity="0.78" />
<line x1="707.83" y1="459.81" x2="564.97" y2="459.81" stroke="#2ca25f" stroke-width="1.80" stroke-opacity="0.78" />
<line x1="564.97" y1="459.81" x2="549.10" y2="557.01" stroke="#2ca25f" stroke-width="1.80" stroke-opacity="0.78" />
<line x1="549.10" y1="557.01" x2="549.10" y2="631.08" stroke="#2ca25f" stroke-width="1.80" stroke-opacity="0.78" />
<line x1="549.10" y1="631.08" x2="549.10" y2="668.17" stroke="#2ca25f" stroke-width="1.80" stroke-opacity="0.78" />
<line x1="549.10" y1="631.08" x2="538.52" y2="631.08" stroke="#2ca25f" stroke-width="1.80" stroke-opacity="0.78" />
<line x1="564.97" y1="459.81" x2="564.97" y2="371.88" stroke="#2ca25f" stroke-width="1.80" stroke-opacity="0.78" />
<line x1="564.97" y1="371.88" x2="564.97" y2="297.80" stroke="#2ca25f" stroke-width="1.80" stroke-opacity="0.78" />
<line x1="564.97" y1="297.80" x2="665.50" y2="297.80" stroke="#2ca25f" stroke-width="1.80" stroke-opacity="0.78" />
<line x1="665.50" y1="297.80" x2="676.08" y2="223.73" stroke="#2ca25f" stroke-width="1.80" stroke-opacity="0.78" />
<line x1="564.97" y1="297.80" x2="564.97" y2="260.71" stroke="#2ca25f" stroke-width="1.80" stroke-opacity="0.78" />
<line x1="564.97" y1="260.71" x2="512.06" y2="260.71" stroke="#2ca25f" stroke-width="1.80" stroke-opacity="0.78" />
<line x1="564.97" y1="260.71" x2="564.97" y2="149.66" stroke="#2ca25f" stroke-width="1.80" stroke-opacity="0.78" />
<line x1="564.97" y1="149.66" x2="591.43" y2="149.66" stroke="#2ca25f" stroke-width="1.80" stroke-opacity="0.78" />
<line x1="564.97" y1="149.66" x2="538.52" y2="112.57" stroke="#2ca25f" stroke-width="1.80" stroke-opacity="0.78" />
<line x1="20.00" y1="1020.00" x2="481.56" y2="528.73" stroke="#6a3d9a" stroke-width="1.90" stroke-opacity="0.82" />
</g>
<g fill="#ffbf69" fill-opacity="0.86" stroke="#8c4f00" stroke-width="0.8">
<rect x="401.35" y="425.16" width="4.50" height="4.50" />
<rect x="464.84" y="499.23" width="4.50" height="4.50" />
<rect x="401.35" y="869.60" width="4.50" height="4.50" />
<rect x="78.60" y="202.94" width="4.50" height="4.50" />
<rect x="528.33" y="128.86" width="4.50" height="4.50" />
<rect x="157.96" y="610.34" width="4.50" height="4.50" />
<rect x="89.18" y="684.42" width="4.50" height="4.50" />
<rect x="205.58" y="684.42" width="4.50" height="4.50" />
<rect x="337.86" y="721.45" width="4.50" height="4.50" />
<rect x="782.30" y="832.56" width="4.50" height="4.50" />
<rect x="824.63" y="795.53" width="4.50" height="4.50" />
<rect x="829.92" y="721.45" width="4.50" height="4.50" />
<rect x="866.96" y="573.31" width="4.50" height="4.50" />
<rect x="925.16" y="499.23" width="4.50" height="4.50" />
<rect x="925.16" y="425.16" width="4.50" height="4.50" />
<rect x="914.58" y="351.08" width="4.50" height="4.50" />
<rect x="665.90" y="239.97" width="4.50" height="4.50" />
<rect x="581.24" y="165.90" width="4.50" height="4.50" />
<rect x="332.56" y="906.64" width="4.50" height="4.50" />
<rect x="68.01" y="314.05" width="4.50" height="4.50" />
<rect x="247.91" y="351.08" width="4.50" height="4.50" />
<rect x="126.22" y="388.12" width="4.50" height="4.50" />
<rect x="78.60" y="832.56" width="4.50" height="4.50" />
<rect x="168.54" y="869.60" width="4.50" height="4.50" />
<rect x="321.98" y="684.42" width="4.50" height="4.50" />
<rect x="517.75" y="906.64" width="4.50" height="4.50" />
<rect x="464.84" y="721.45" width="4.50" height="4.50" />
<rect x="538.91" y="684.42" width="4.50" height="4.50" />
<rect x="528.33" y="647.38" width="4.50" height="4.50" />
<rect x="538.91" y="573.31" width="4.50" height="4.50" />
<rect x="554.79" y="388.12" width="4.50" height="4.50" />
<rect x="655.32" y="314.05" width="4.50" height="4.50" />
<rect x="501.88" y="277.01" width="4.50" height="4.50" />
<rect x="401.35" y="239.97" width="4.50" height="4.50" />
<rect x="479.31" y="526.48" width="4.50" height="4.50" />
<rect x="278.17" y="587.72" width="4.50" height="4.50" />
<rect x="705.58" y="457.56" width="4.50" height="4.50" />
</g>
<g stroke-width="0.7">
<circle cx="20.00" cy="1020.00" r="3.00" fill="#d62728" stroke="#ffffff" />
<circle cx="481.56" cy="528.73" r="2.00" fill="#1f77b4" fill-opacity="0.78" stroke="#0c4068" />
<circle cx="481.56" cy="528.73" r="3.00" fill="#d62728" stroke="#ffffff" />
<circle cx="280.42" cy="589.97" r="2.00" fill="#1f77b4" fill-opacity="0.78" stroke="#0c4068" />
<circle cx="707.83" cy="459.81" r="2.00" fill="#1f77b4" fill-opacity="0.78" stroke="#0c4068" />
<circle cx="280.42" cy="589.97" r="3.00" fill="#d62728" stroke="#ffffff" />
<circle cx="332.17" cy="668.17" r="2.00" fill="#1f77b4" fill-opacity="0.78" stroke="#0c4068" />
<circle cx="527.94" cy="890.40" r="2.00" fill="#1f77b4" fill-opacity="0.78" stroke="#0c4068" />
<circle cx="475.03" cy="482.94" r="2.00" fill="#1f77b4" fill-opacity="0.78" stroke="#0c4068" />
<circle cx="475.03" cy="705.16" r="2.00" fill="#1f77b4" fill-opacity="0.78" stroke="#0c4068" />
<circle cx="411.53" cy="223.73" r="2.00" fill="#1f77b4" fill-opacity="0.78" stroke="#0c4068" />
<circle cx="411.53" cy="408.86" r="2.00" fill="#1f77b4" fill-opacity="0.78" stroke="#0c4068" />
<circle cx="411.53" cy="853.31" r="2.00" fill="#1f77b4" fill-opacity="0.78" stroke="#0c4068" />
<circle cx="348.04" cy="705.16" r="2.00" fill="#1f77b4" fill-opacity="0.78" stroke="#0c4068" />
<circle cx="342.75" cy="890.40" r="2.00" fill="#1f77b4" fill-opacity="0.78" stroke="#0c4068" />
<circle cx="78.20" cy="297.80" r="2.00" fill="#1f77b4" fill-opacity="0.78" stroke="#0c4068" />
<circle cx="258.10" cy="334.79" r="2.00" fill="#1f77b4" fill-opacity="0.78" stroke="#0c4068" />
<circle cx="215.77" cy="668.17" r="2.00" fill="#1f77b4" fill-opacity="0.78" stroke="#0c4068" />
<circle cx="178.73" cy="853.31" r="2.00" fill="#1f77b4" fill-opacity="0.78" stroke="#0c4068" />
<circle cx="168.15" cy="594.10" r="2.00" fill="#1f77b4" fill-opacity="0.78" stroke="#0c4068" />
<circle cx="136.40" cy="371.88" r="2.00" fill="#1f77b4" fill-opacity="0.78" stroke="#0c4068" />
<circle cx="99.37" cy="668.17" r="2.00" fill="#1f77b4" fill-opacity="0.78" stroke="#0c4068" />
<circle cx="88.78" cy="186.64" r="2.00" fill="#1f77b4" fill-opacity="0.78" stroke="#0c4068" />
<circle cx="88.78" cy="816.32" r="2.00" fill="#1f77b4" fill-opacity="0.78" stroke="#0c4068" />
<circle cx="707.83" cy="459.81" r="3.00" fill="#d62728" stroke="#ffffff" />
<circle cx="538.52" cy="631.08" r="2.00" fill="#1f77b4" fill-opacity="0.78" stroke="#0c4068" />
<circle cx="538.52" cy="112.57" r="2.00" fill="#1f77b4" fill-opacity="0.78" stroke="#0c4068" />
<circle cx="549.10" cy="668.17" r="2.00" fill="#1f77b4" fill-opacity="0.78" stroke="#0c4068" />
<circle cx="549.10" cy="557.01" r="2.00" fill="#1f77b4" fill-opacity="0.78" stroke="#0c4068" />
<circle cx="564.97" cy="371.88" r="2.00" fill="#1f77b4" fill-opacity="0.78" stroke="#0c4068" />
<circle cx="591.43" cy="149.66" r="2.00" fill="#1f77b4" fill-opacity="0.78" stroke="#0c4068" />
<circle cx="665.50" cy="297.80" r="2.00" fill="#1f77b4" fill-opacity="0.78" stroke="#0c4068" />
<circle cx="676.08" cy="223.73" r="2.00" fill="#1f77b4" fill-opacity="0.78" stroke="#0c4068" />
<circle cx="792.49" cy="816.32" r="2.00" fill="#1f77b4" fill-opacity="0.78" stroke="#0c4068" />
<circle cx="834.81" cy="779.23" r="2.00" fill="#1f77b4" fill-opacity="0.78" stroke="#0c4068" />
<circle cx="840.11" cy="705.16" r="2.00" fill="#1f77b4" fill-opacity="0.78" stroke="#0c4068" />
<circle cx="877.14" cy="557.01" r="2.00" fill="#1f77b4" fill-opacity="0.78" stroke="#0c4068" />
<circle cx="924.76" cy="334.79" r="2.00" fill="#1f77b4" fill-opacity="0.78" stroke="#0c4068" />
<circle cx="935.34" cy="482.94" r="2.00" fill="#1f77b4" fill-opacity="0.78" stroke="#0c4068" />
<circle cx="935.34" cy="408.86" r="2.00" fill="#1f77b4" fill-opacity="0.78" stroke="#0c4068" />
<circle cx="512.06" cy="260.71" r="2.00" fill="#1f77b4" fill-opacity="0.78" stroke="#0c4068" />
</g>
<g font-family="monospace" font-size="12" fill="#222222"><rect x="10.00" y="874.00" width="260" height="132.00" rx="6" fill="#ffffff" fill-opacity="0.88" stroke="#d0d0d0" /><text x="18.00" y="890.00">Legend</text><line x1="18.00" y1="904.00" x2="32.00" y2="904.00" stroke="#2ca25f" stroke-width="1.8" /><text x="38.00" y="908.00">routed segment</text><line x1="18.00" y1="922.00" x2="32.00" y2="922.00" stroke="#6a3d9a" stroke-width="1.2" stroke-dasharray="8,5" /><text x="38.00" y="926.00">flyline segment</text><line x1="18.00" y1="940.00" x2="32.00" y2="940.00" stroke="#ff8c42" stroke-width="1.4" stroke-dasharray="5,3" /><text x="38.00" y="944.00">fallback segment</text><circle cx="25.00" cy="958.00" r="3.00" fill="#d62728" /><text x="38.00" y="962.00">driver/root</text><circle cx="25.00" cy="976.00" r="2.00" fill="#1f77b4" /><text x="38.00" y="980.00">sink load</text><rect x="22.00" y="990.00" width="4.50" height="4.50" fill="#ffbf69" stroke="#8c4f00" stroke-width="1.0" /><text x="38.00" y="998.00">CTS buffer</text></g>
</svg>
